<svg aria-roledescription="er" role="graphics-document document" viewBox="0 0 353.123046875 620" style="max-width: 100%;" xmlns="http://www.w3.org/2000/svg" width="100%" id="graph-div" height="100%" xmlns:xlink="http://www.w3.org/1999/xlink"><style>@import url("https://cdnjs.cloudflare.com/ajax/libs/font-awesome/6.5.1/css/all.min.css");'</style><style>#graph-div{font-family:"trebuchet ms",verdana,arial,sans-serif;font-size:16px;fill:#333;}#graph-div .error-icon{fill:#552222;}#graph-div .error-text{fill:#552222;stroke:#552222;}#graph-div .edge-thickness-normal{stroke-width:2px;}#graph-div .edge-thickness-thick{stroke-width:3.5px;}#graph-div .edge-pattern-solid{stroke-dasharray:0;}#graph-div .edge-pattern-dashed{stroke-dasharray:3;}#graph-div .edge-pattern-dotted{stroke-dasharray:2;}#graph-div .marker{fill:#333333;stroke:#333333;}#graph-div .marker.cross{stroke:#333333;}#graph-div svg{font-family:"trebuchet ms",verdana,arial,sans-serif;font-size:16px;}#graph-div .entityBox{fill:#ECECFF;stroke:#9370DB;}#graph-div .attributeBoxOdd{fill:#ffffff;stroke:#9370DB;}#graph-div .attributeBoxEven{fill:#f2f2f2;stroke:#9370DB;}#graph-div .relationshipLabelBox{fill:hsl(80, 100%, 96.2745098039%);opacity:0.7;background-color:hsl(80, 100%, 96.2745098039%);}#graph-div .relationshipLabelBox rect{opacity:0.5;}#graph-div .relationshipLine{stroke:#333333;}#graph-div .entityTitleText{text-anchor:middle;font-size:18px;fill:#333;}#graph-div #MD_PARENT_START{fill:#f5f5f5!important;stroke:#333333!important;stroke-width:1;}#graph-div #MD_PARENT_END{fill:#f5f5f5!important;stroke:#333333!important;stroke-width:1;}#graph-div :root{--mermaid-font-family:"trebuchet ms",verdana,arial,sans-serif;}</style><g></g><defs><marker orient="auto" markerHeight="240" markerWidth="190" refY="7" refX="0" id="MD_PARENT_START"><path d="M 18,7 L9,13 L1,7 L9,1 Z"></path></marker></defs><defs><marker orient="auto" markerHeight="28" markerWidth="20" refY="7" refX="19" id="MD_PARENT_END"><path d="M 18,7 L9,13 L1,7 L9,1 Z"></path></marker></defs><defs><marker orient="auto" markerHeight="18" markerWidth="18" refY="9" refX="0" id="ONLY_ONE_START"><path d="M9,0 L9,18 M15,0 L15,18" fill="none" stroke="gray"></path></marker></defs><defs><marker orient="auto" markerHeight="18" markerWidth="18" refY="9" refX="18" id="ONLY_ONE_END"><path d="M3,0 L3,18 M9,0 L9,18" fill="none" stroke="gray"></path></marker></defs><defs><marker orient="auto" markerHeight="18" markerWidth="30" refY="9" refX="0" id="ZERO_OR_ONE_START"><circle r="6" cy="9" cx="21" fill="white" stroke="gray"></circle><path d="M9,0 L9,18" fill="none" stroke="gray"></path></marker></defs><defs><marker orient="auto" markerHeight="18" markerWidth="30" refY="9" refX="30" id="ZERO_OR_ONE_END"><circle r="6" cy="9" cx="9" fill="white" stroke="gray"></circle><path d="M21,0 L21,18" fill="none" stroke="gray"></path></marker></defs><defs><marker orient="auto" markerHeight="36" markerWidth="45" refY="18" refX="18" id="ONE_OR_MORE_START"><path d="M0,18 Q 18,0 36,18 Q 18,36 0,18 M42,9 L42,27" fill="none" stroke="gray"></path></marker></defs><defs><marker orient="auto" markerHeight="36" markerWidth="45" refY="18" refX="27" id="ONE_OR_MORE_END"><path d="M3,9 L3,27 M9,18 Q27,0 45,18 Q27,36 9,18" fill="none" stroke="gray"></path></marker></defs><defs><marker orient="auto" markerHeight="36" markerWidth="57" refY="18" refX="18" id="ZERO_OR_MORE_START"><circle r="6" cy="18" cx="48" fill="white" stroke="gray"></circle><path d="M0,18 Q18,0 36,18 Q18,36 0,18" fill="none" stroke="gray"></path></marker></defs><defs><marker orient="auto" markerHeight="36" markerWidth="57" refY="18" refX="39" id="ZERO_OR_MORE_END"><circle r="6" cy="18" cx="9" fill="white" stroke="gray"></circle><path d="M21,18 Q39,0 57,18 Q39,36 21,18" fill="none" stroke="gray"></path></marker></defs><path style="stroke: gray; fill: none;" marker-start="url(#ONLY_ONE_START)" marker-end="url(#ZERO_OR_MORE_END)" d="M129.842,143.642L120.962,153.701C112.082,163.761,94.322,183.881,85.442,204.107C76.562,224.333,76.562,244.667,76.562,254.833L76.562,265" class="er relationshipLine"></path><path style="stroke: gray; fill: none;" marker-start="url(#ZERO_OR_MORE_START)" marker-end="url(#ONLY_ONE_END)" d="M76.562,355L76.562,365.167C76.562,375.333,76.562,395.667,76.562,414.167C76.562,432.667,76.562,449.333,76.562,457.667L76.562,466" class="er relationshipLine"></path><path style="stroke: gray; fill: none;" marker-start="url(#ONLY_ONE_START)" marker-end="url(#ZERO_OR_MORE_END)" d="M229.842,143.642L238.722,153.701C247.603,163.761,265.363,183.881,274.243,202.274C283.123,220.667,283.123,237.333,283.123,245.667L283.123,254" class="er relationshipLine"></path><path style="stroke: gray; fill: none;" marker-start="url(#ZERO_OR_MORE_START)" marker-end="url(#ONLY_ONE_END)" d="M283.123,366L283.123,374.333C283.123,382.667,283.123,399.333,283.123,417.833C283.123,436.333,283.123,456.667,283.123,466.833L283.123,477" class="er relationshipLine"></path><g transform="translate(129.84228515625,20 )" id="entity-User-818c511a-4a32-5484-ba70-875d765a9175"><rect height="134" width="100" y="0" x="0" class="er entityBox"></rect><text transform="translate(50,12)" style="dominant-baseline: middle; text-anchor: middle; font-size: 12px;" y="0" x="0" id="text-entity-User-818c511a-4a32-5484-ba70-875d765a9175" class="er entityLabel">User</text><rect height="22" width="40.187950134277344" y="24" x="0" class="er attributeBoxOdd"></rect><text transform="translate(5,35)" style="dominant-baseline: middle; font-size: 10.2px;" y="0" x="0" id="text-entity-User-818c511a-4a32-5484-ba70-875d765a9175-attr-1-type" class="er entityLabel">UUID</text><rect height="22" width="59.812049865722656" y="24" x="40.187950134277344" class="er attributeBoxOdd"></rect><text transform="translate(45.187950134277344,35)" style="dominant-baseline: middle; font-size: 10.2px;" y="0" x="0" id="text-entity-User-818c511a-4a32-5484-ba70-875d765a9175-attr-1-name" class="er entityLabel">id</text><rect height="22" width="40.187950134277344" y="46" x="0" class="er attributeBoxEven"></rect><text transform="translate(5,57)" style="dominant-baseline: middle; font-size: 10.2px;" y="0" x="0" id="text-entity-User-818c511a-4a32-5484-ba70-875d765a9175-attr-2-type" class="er entityLabel">string</text><rect height="22" width="59.812049865722656" y="46" x="40.187950134277344" class="er attributeBoxEven"></rect><text transform="translate(45.187950134277344,57)" style="dominant-baseline: middle; font-size: 10.2px;" y="0" x="0" id="text-entity-User-818c511a-4a32-5484-ba70-875d765a9175-attr-2-name" class="er entityLabel">email</text><rect height="22" width="40.187950134277344" y="68" x="0" class="er attributeBoxOdd"></rect><text transform="translate(5,79)" style="dominant-baseline: middle; font-size: 10.2px;" y="0" x="0" id="text-entity-User-818c511a-4a32-5484-ba70-875d765a9175-attr-3-type" class="er entityLabel">string</text><rect height="22" width="59.812049865722656" y="68" x="40.187950134277344" class="er attributeBoxOdd"></rect><text transform="translate(45.187950134277344,79)" style="dominant-baseline: middle; font-size: 10.2px;" y="0" x="0" id="text-entity-User-818c511a-4a32-5484-ba70-875d765a9175-attr-3-name" class="er entityLabel">username</text><rect height="22" width="40.187950134277344" y="90" x="0" class="er attributeBoxEven"></rect><text transform="translate(5,101)" style="dominant-baseline: middle; font-size: 10.2px;" y="0" x="0" id="text-entity-User-818c511a-4a32-5484-ba70-875d765a9175-attr-4-type" class="er entityLabel">string</text><rect height="22" width="59.812049865722656" y="90" x="40.187950134277344" class="er attributeBoxEven"></rect><text transform="translate(45.187950134277344,101)" style="dominant-baseline: middle; font-size: 10.2px;" y="0" x="0" id="text-entity-User-818c511a-4a32-5484-ba70-875d765a9175-attr-4-name" class="er entityLabel">password</text><rect height="22" width="40.187950134277344" y="112" x="0" class="er attributeBoxOdd"></rect><text transform="translate(5,123)" style="dominant-baseline: middle; font-size: 10.2px;" y="0" x="0" id="text-entity-User-818c511a-4a32-5484-ba70-875d765a9175-attr-5-type" class="er entityLabel">date</text><rect height="22" width="59.812049865722656" y="112" x="40.187950134277344" class="er attributeBoxOdd"></rect><text transform="translate(45.187950134277344,123)" style="dominant-baseline: middle; font-size: 10.2px;" y="0" x="0" id="text-entity-User-818c511a-4a32-5484-ba70-875d765a9175-attr-5-name" class="er entityLabel">createdAt</text></g><g transform="translate(20,265 )" id="entity-WatchedLesson-a9ed1bcd-b095-574c-a5bb-964c2c870b49"><rect height="90" width="113.123046875" y="0" x="0" class="er entityBox"></rect><text transform="translate(56.5615234375,12)" style="dominant-baseline: middle; text-anchor: middle; font-size: 12px;" y="0" x="0" id="text-entity-WatchedLesson-a9ed1bcd-b095-574c-a5bb-964c2c870b49" class="er entityLabel">WatchedLesson</text><rect height="22" width="42.655548095703125" y="24" x="0" class="er attributeBoxOdd"></rect><text transform="translate(5,35)" style="dominant-baseline: middle; font-size: 10.2px;" y="0" x="0" id="text-entity-WatchedLesson-a9ed1bcd-b095-574c-a5bb-964c2c870b49-attr-1-type" class="er entityLabel">UUID</text><rect height="22" width="70.46749877929688" y="24" x="42.655548095703125" class="er attributeBoxOdd"></rect><text transform="translate(47.655548095703125,35)" style="dominant-baseline: middle; font-size: 10.2px;" y="0" x="0" id="text-entity-WatchedLesson-a9ed1bcd-b095-574c-a5bb-964c2c870b49-attr-1-name" class="er entityLabel">user</text><rect height="22" width="42.655548095703125" y="46" x="0" class="er attributeBoxEven"></rect><text transform="translate(5,57)" style="dominant-baseline: middle; font-size: 10.2px;" y="0" x="0" id="text-entity-WatchedLesson-a9ed1bcd-b095-574c-a5bb-964c2c870b49-attr-2-type" class="er entityLabel">UUID</text><rect height="22" width="70.46749877929688" y="46" x="42.655548095703125" class="er attributeBoxEven"></rect><text transform="translate(47.655548095703125,57)" style="dominant-baseline: middle; font-size: 10.2px;" y="0" x="0" id="text-entity-WatchedLesson-a9ed1bcd-b095-574c-a5bb-964c2c870b49-attr-2-name" class="er entityLabel">lesson</text><rect height="22" width="42.655548095703125" y="68" x="0" class="er attributeBoxOdd"></rect><text transform="translate(5,79)" style="dominant-baseline: middle; font-size: 10.2px;" y="0" x="0" id="text-entity-WatchedLesson-a9ed1bcd-b095-574c-a5bb-964c2c870b49-attr-3-type" class="er entityLabel">date</text><rect height="22" width="70.46749877929688" y="68" x="42.655548095703125" class="er attributeBoxOdd"></rect><text transform="translate(47.655548095703125,79)" style="dominant-baseline: middle; font-size: 10.2px;" y="0" x="0" id="text-entity-WatchedLesson-a9ed1bcd-b095-574c-a5bb-964c2c870b49-attr-3-name" class="er entityLabel">watchedAt</text></g><g transform="translate(26.5615234375,466 )" id="entity-VideoLesson-b111495d-b849-57ea-a802-4f6f9e0fd6cb"><rect height="134" width="100" y="0" x="0" class="er entityBox"></rect><text transform="translate(50,12)" style="dominant-baseline: middle; text-anchor: middle; font-size: 12px;" y="0" x="0" id="text-entity-VideoLesson-b111495d-b849-57ea-a802-4f6f9e0fd6cb" class="er entityLabel">VideoLesson</text><rect height="22" width="37.60612487792969" y="24" x="0" class="er attributeBoxOdd"></rect><text transform="translate(5,35)" style="dominant-baseline: middle; font-size: 10.2px;" y="0" x="0" id="text-entity-VideoLesson-b111495d-b849-57ea-a802-4f6f9e0fd6cb-attr-1-type" class="er entityLabel">UUID</text><rect height="22" width="62.39387512207031" y="24" x="37.60612487792969" class="er attributeBoxOdd"></rect><text transform="translate(42.60612487792969,35)" style="dominant-baseline: middle; font-size: 10.2px;" y="0" x="0" id="text-entity-VideoLesson-b111495d-b849-57ea-a802-4f6f9e0fd6cb-attr-1-name" class="er entityLabel">id</text><rect height="22" width="37.60612487792969" y="46" x="0" class="er attributeBoxEven"></rect><text transform="translate(5,57)" style="dominant-baseline: middle; font-size: 10.2px;" y="0" x="0" id="text-entity-VideoLesson-b111495d-b849-57ea-a802-4f6f9e0fd6cb-attr-2-type" class="er entityLabel">string</text><rect height="22" width="62.39387512207031" y="46" x="37.60612487792969" class="er attributeBoxEven"></rect><text transform="translate(42.60612487792969,57)" style="dominant-baseline: middle; font-size: 10.2px;" y="0" x="0" id="text-entity-VideoLesson-b111495d-b849-57ea-a802-4f6f9e0fd6cb-attr-2-name" class="er entityLabel">title</text><rect height="22" width="37.60612487792969" y="68" x="0" class="er attributeBoxOdd"></rect><text transform="translate(5,79)" style="dominant-baseline: middle; font-size: 10.2px;" y="0" x="0" id="text-entity-VideoLesson-b111495d-b849-57ea-a802-4f6f9e0fd6cb-attr-3-type" class="er entityLabel">string</text><rect height="22" width="62.39387512207031" y="68" x="37.60612487792969" class="er attributeBoxOdd"></rect><text transform="translate(42.60612487792969,79)" style="dominant-baseline: middle; font-size: 10.2px;" y="0" x="0" id="text-entity-VideoLesson-b111495d-b849-57ea-a802-4f6f9e0fd6cb-attr-3-name" class="er entityLabel">link</text><rect height="22" width="37.60612487792969" y="90" x="0" class="er attributeBoxEven"></rect><text transform="translate(5,101)" style="dominant-baseline: middle; font-size: 10.2px;" y="0" x="0" id="text-entity-VideoLesson-b111495d-b849-57ea-a802-4f6f9e0fd6cb-attr-4-type" class="er entityLabel">text</text><rect height="22" width="62.39387512207031" y="90" x="37.60612487792969" class="er attributeBoxEven"></rect><text transform="translate(42.60612487792969,101)" style="dominant-baseline: middle; font-size: 10.2px;" y="0" x="0" id="text-entity-VideoLesson-b111495d-b849-57ea-a802-4f6f9e0fd6cb-attr-4-name" class="er entityLabel">description</text><rect height="22" width="37.60612487792969" y="112" x="0" class="er attributeBoxOdd"></rect><text transform="translate(5,123)" style="dominant-baseline: middle; font-size: 10.2px;" y="0" x="0" id="text-entity-VideoLesson-b111495d-b849-57ea-a802-4f6f9e0fd6cb-attr-5-type" class="er entityLabel">date</text><rect height="22" width="62.39387512207031" y="112" x="37.60612487792969" class="er attributeBoxOdd"></rect><text transform="translate(42.60612487792969,123)" style="dominant-baseline: middle; font-size: 10.2px;" y="0" x="0" id="text-entity-VideoLesson-b111495d-b849-57ea-a802-4f6f9e0fd6cb-attr-5-name" class="er entityLabel">createdAt</text></g><g transform="translate(233.123046875,254 )" id="entity-Result-8b64c460-de0d-565f-9ccf-80fcaa6de7ea"><rect height="112" width="100" y="0" x="0" class="er entityBox"></rect><text transform="translate(50,12)" style="dominant-baseline: middle; text-anchor: middle; font-size: 12px;" y="0" x="0" id="text-entity-Result-8b64c460-de0d-565f-9ccf-80fcaa6de7ea" class="er entityLabel">Result</text><rect height="22" width="41.92864227294922" y="24" x="0" class="er attributeBoxOdd"></rect><text transform="translate(5,35)" style="dominant-baseline: middle; font-size: 10.2px;" y="0" x="0" id="text-entity-Result-8b64c460-de0d-565f-9ccf-80fcaa6de7ea-attr-1-type" class="er entityLabel">UUID</text><rect height="22" width="58.07135772705078" y="24" x="41.92864227294922" class="er attributeBoxOdd"></rect><text transform="translate(46.92864227294922,35)" style="dominant-baseline: middle; font-size: 10.2px;" y="0" x="0" id="text-entity-Result-8b64c460-de0d-565f-9ccf-80fcaa6de7ea-attr-1-name" class="er entityLabel">user</text><rect height="22" width="41.92864227294922" y="46" x="0" class="er attributeBoxEven"></rect><text transform="translate(5,57)" style="dominant-baseline: middle; font-size: 10.2px;" y="0" x="0" id="text-entity-Result-8b64c460-de0d-565f-9ccf-80fcaa6de7ea-attr-2-type" class="er entityLabel">UUID</text><rect height="22" width="58.07135772705078" y="46" x="41.92864227294922" class="er attributeBoxEven"></rect><text transform="translate(46.92864227294922,57)" style="dominant-baseline: middle; font-size: 10.2px;" y="0" x="0" id="text-entity-Result-8b64c460-de0d-565f-9ccf-80fcaa6de7ea-attr-2-name" class="er entityLabel">exercice</text><rect height="22" width="41.92864227294922" y="68" x="0" class="er attributeBoxOdd"></rect><text transform="translate(5,79)" style="dominant-baseline: middle; font-size: 10.2px;" y="0" x="0" id="text-entity-Result-8b64c460-de0d-565f-9ccf-80fcaa6de7ea-attr-3-type" class="er entityLabel">float</text><rect height="22" width="58.07135772705078" y="68" x="41.92864227294922" class="er attributeBoxOdd"></rect><text transform="translate(46.92864227294922,79)" style="dominant-baseline: middle; font-size: 10.2px;" y="0" x="0" id="text-entity-Result-8b64c460-de0d-565f-9ccf-80fcaa6de7ea-attr-3-name" class="er entityLabel">note</text><rect height="22" width="41.92864227294922" y="90" x="0" class="er attributeBoxEven"></rect><text transform="translate(5,101)" style="dominant-baseline: middle; font-size: 10.2px;" y="0" x="0" id="text-entity-Result-8b64c460-de0d-565f-9ccf-80fcaa6de7ea-attr-4-type" class="er entityLabel">date</text><rect height="22" width="58.07135772705078" y="90" x="41.92864227294922" class="er attributeBoxEven"></rect><text transform="translate(46.92864227294922,101)" style="dominant-baseline: middle; font-size: 10.2px;" y="0" x="0" id="text-entity-Result-8b64c460-de0d-565f-9ccf-80fcaa6de7ea-attr-4-name" class="er entityLabel">doneAt</text></g><g transform="translate(233.123046875,477 )" id="entity-Exercise-f3d393b9-630e-5784-a309-81e49efab0e7"><rect height="112" width="100" y="0" x="0" class="er entityBox"></rect><text transform="translate(50,12)" style="dominant-baseline: middle; text-anchor: middle; font-size: 12px;" y="0" x="0" id="text-entity-Exercise-f3d393b9-630e-5784-a309-81e49efab0e7" class="er entityLabel">Exercise</text><rect height="22" width="40.187950134277344" y="24" x="0" class="er attributeBoxOdd"></rect><text transform="translate(5,35)" style="dominant-baseline: middle; font-size: 10.2px;" y="0" x="0" id="text-entity-Exercise-f3d393b9-630e-5784-a309-81e49efab0e7-attr-1-type" class="er entityLabel">UUID</text><rect height="22" width="59.812049865722656" y="24" x="40.187950134277344" class="er attributeBoxOdd"></rect><text transform="translate(45.187950134277344,35)" style="dominant-baseline: middle; font-size: 10.2px;" y="0" x="0" id="text-entity-Exercise-f3d393b9-630e-5784-a309-81e49efab0e7-attr-1-name" class="er entityLabel">id</text><rect height="22" width="40.187950134277344" y="46" x="0" class="er attributeBoxEven"></rect><text transform="translate(5,57)" style="dominant-baseline: middle; font-size: 10.2px;" y="0" x="0" id="text-entity-Exercise-f3d393b9-630e-5784-a309-81e49efab0e7-attr-2-type" class="er entityLabel">string</text><rect height="22" width="59.812049865722656" y="46" x="40.187950134277344" class="er attributeBoxEven"></rect><text transform="translate(45.187950134277344,57)" style="dominant-baseline: middle; font-size: 10.2px;" y="0" x="0" id="text-entity-Exercise-f3d393b9-630e-5784-a309-81e49efab0e7-attr-2-name" class="er entityLabel">link</text><rect height="22" width="40.187950134277344" y="68" x="0" class="er attributeBoxOdd"></rect><text transform="translate(5,79)" style="dominant-baseline: middle; font-size: 10.2px;" y="0" x="0" id="text-entity-Exercise-f3d393b9-630e-5784-a309-81e49efab0e7-attr-3-type" class="er entityLabel">UUID</text><rect height="22" width="59.812049865722656" y="68" x="40.187950134277344" class="er attributeBoxOdd"></rect><text transform="translate(45.187950134277344,79)" style="dominant-baseline: middle; font-size: 10.2px;" y="0" x="0" id="text-entity-Exercise-f3d393b9-630e-5784-a309-81e49efab0e7-attr-3-name" class="er entityLabel">lesson</text><rect height="22" width="40.187950134277344" y="90" x="0" class="er attributeBoxEven"></rect><text transform="translate(5,101)" style="dominant-baseline: middle; font-size: 10.2px;" y="0" x="0" id="text-entity-Exercise-f3d393b9-630e-5784-a309-81e49efab0e7-attr-4-type" class="er entityLabel">date</text><rect height="22" width="59.812049865722656" y="90" x="40.187950134277344" class="er attributeBoxEven"></rect><text transform="translate(45.187950134277344,101)" style="dominant-baseline: middle; font-size: 10.2px;" y="0" x="0" id="text-entity-Exercise-f3d393b9-630e-5784-a309-81e49efab0e7-attr-4-name" class="er entityLabel">createdAt</text></g><rect height="14" width="45.03515625" y="191.13211059570312" x="65.79583740234375" class="er relationshipLabelBox"></rect><text style="text-anchor: middle; dominant-baseline: middle; font-size: 12px;" y="198.13211059570312" x="88.31341552734375" id="rel1" class="er relationshipLabel">watches</text><rect height="14" width="44.978515625" y="403.5" x="54.07273864746094" class="er relationshipLabelBox"></rect><text style="text-anchor: middle; dominant-baseline: middle; font-size: 12px;" y="410.5" x="76.56199645996094" id="rel2" class="er relationshipLabel">contains</text><rect height="14" width="26.92578125" y="186.18716430664062" x="255.80313110351562" class="er relationshipLabelBox"></rect><text style="text-anchor: middle; dominant-baseline: middle; font-size: 12px;" y="193.18716430664062" x="269.2660217285156" id="rel3" class="er relationshipLabel">owns</text><rect height="14" width="56.01953125" y="414.5" x="255.11322021484375" class="er relationshipLabelBox"></rect><text style="text-anchor: middle; dominant-baseline: middle; font-size: 12px;" y="421.5" x="283.12298583984375" id="rel4" class="er relationshipLabel">belongs to</text></svg>